<svg xmlns="http://www.w3.org/2000/svg" xmlns:xlink="http://www.w3.org/1999/xlink" width="21" height="18" viewBox="0 0 21 18"><defs><path id="2ek6a" d="M41 1049h8a2 2 0 0 0 2-2v-4h-2v4h-8v-14h8v4h2v-4a2 2 0 0 0-2-2h-8a2 2 0 0 0-2 2v14c0 1.1.9 2 2 2z"/><path id="2ek6b" d="M53.59 1043.59L55 1045l5-5-5-5-1.41 1.41 2.58 2.59H44.5v2h11.67z"/></defs><g><g transform="translate(-39 -1031)"><use fill="#fff" xlink:href="#2ek6a"/></g><g transform="translate(-39 -1031)"><use fill="#fff" xlink:href="#2ek6b"/></g></g></svg>