<svg xmlns="http://www.w3.org/2000/svg" xmlns:xlink="http://www.w3.org/1999/xlink" width="20" height="20" viewBox="0 0 20 20"><defs><path id="freha" d="M48 410.6a3.61 3.61 0 0 1-3.6-3.6c0-1.98 1.62-3.6 3.6-3.6s3.6 1.62 3.6 3.6-1.62 3.6-3.6 3.6zm7.14-2.66a7.83 7.83 0 0 0-.01-1.88l2.03-1.58a.5.5 0 0 0 .12-.61l-1.92-3.33c-.12-.21-.38-.28-.6-.21l-2.38.96c-.5-.39-1.03-.7-1.62-.94l-.36-2.54a.48.48 0 0 0-.48-.41h-3.84a.47.47 0 0 0-.47.4l-.36 2.55c-.59.24-1.13.57-1.62.94l-2.39-.96a.47.47 0 0 0-.58.21l-1.92 3.33a.47.47 0 0 0 .12.61l2.02 1.58a6.03 6.03 0 0 0 0 1.88l-2.04 1.58a.5.5 0 0 0-.12.61l1.92 3.33c.12.21.38.28.6.21l2.38-.96c.5.39 1.03.7 1.62.94l.36 2.54c.05.24.24.41.48.41h3.84c.24 0 .44-.17.47-.4l.36-2.55a7.22 7.22 0 0 0 1.62-.94l2.39.96c.21.09.46 0 .58-.21l1.92-3.33a.47.47 0 0 0-.12-.61z"/></defs><g><g transform="translate(-38 -397)"><use fill="#fff" xlink:href="#freha"/></g></g></svg>