<!-- Generated by IcoMoon.io -->
<svg version="1.1" xmlns="http://www.w3.org/2000/svg" width="32" height="32" viewBox="0 0 32 32">
<title>Path_107</title>
<path fill="#fff" d="M16 21.76c-3.178-0.009-5.751-2.582-5.76-5.759v-0.001c0-3.168 2.592-5.76 5.76-5.76s5.76 2.592 5.76 5.76-2.592 5.76-5.76 5.76zM27.424 17.504c0.053-0.432 0.083-0.931 0.083-1.438 0-0.553-0.036-1.099-0.105-1.633l0.007 0.063 3.248-2.528c0.173-0.148 0.281-0.366 0.281-0.609 0-0.134-0.033-0.26-0.091-0.371l0.002 0.004-3.072-5.328c-0.192-0.336-0.608-0.448-0.96-0.336l-3.808 1.536c-0.8-0.624-1.648-1.12-2.592-1.504l-0.576-4.064c-0.057-0.373-0.375-0.656-0.76-0.656-0.003 0-0.006 0-0.009 0h-6.144c-0.002-0-0.005-0-0.008-0-0.376 0-0.687 0.276-0.743 0.636l-0.001 0.004-0.576 4.080c-0.944 0.384-1.808 0.912-2.592 1.504l-3.824-1.536c-0.080-0.032-0.173-0.050-0.271-0.050-0.281 0-0.526 0.154-0.655 0.383l-0.002 0.004-3.072 5.328c-0.064 0.109-0.103 0.239-0.103 0.379 0 0.242 0.115 0.458 0.293 0.596l0.002 0.001 3.232 2.528c-0.075 0.452-0.118 0.973-0.118 1.504s0.043 1.052 0.125 1.56l-0.007-0.056-3.264 2.528c-0.173 0.148-0.281 0.366-0.281 0.609 0 0.134 0.033 0.26 0.091 0.371l-0.002-0.004 3.072 5.328c0.192 0.336 0.608 0.448 0.96 0.336l3.808-1.536c0.8 0.624 1.648 1.12 2.592 1.504l0.576 4.064c0.080 0.384 0.384 0.656 0.768 0.656h6.144c0.384 0 0.704-0.272 0.752-0.64l0.576-4.080c0.99-0.419 1.843-0.923 2.618-1.524l-0.026 0.020 3.824 1.536c0.336 0.144 0.736 0 0.928-0.336l3.072-5.328c0.064-0.109 0.103-0.239 0.103-0.379 0-0.242-0.115-0.458-0.293-0.596l-0.002-0.001z"></path>
</svg>
