<!-- Generated by IcoMoon.io -->
<svg version="1.1" xmlns="http://www.w3.org/2000/svg" width="32" height="32" viewBox="0 0 32 32">
<title>Path_104</title>
<path fill="#fff" d="M7.111 21.333h3.556v3.556h-3.556zM7.111 14.222h3.556v3.556h-3.556zM7.111 7.111h3.556v3.556h-3.556zM14.222 21.333h10.667v3.556h-10.667zM14.222 14.222h10.667v3.556h-10.667zM14.222 7.111h10.667v3.556h-10.667zM32 1.6v28.8c0 0.711-0.889 1.6-1.6 1.6h-28.8c-0.889 0-1.6-0.889-1.6-1.6v-28.8c0-0.889 0.711-1.6 1.6-1.6h28.8c0.711 0 1.6 0.711 1.6 1.6zM28.444 3.556h-24.889v24.889h24.889v-24.889z"></path>
</svg>
