<!-- Generated by IcoMoon.io -->
<svg version="1.1" xmlns="http://www.w3.org/2000/svg" width="34" height="32" viewBox="0 0 34 32">
<title>Path_109</title>
<path fill="#fff" d="M3.556 28.444v-24.889h24.889v3.556h-10.667c-1.964 0-3.556 1.592-3.556 3.556v0 10.667c0 1.956 1.6 3.556 3.556 3.556h10.667v3.556zM30.222 10.667v10.667h-12.444v-10.667zM32 7.609v-4.053c0-1.964-1.592-3.556-3.556-3.556v0h-24.889c-1.964 0-3.556 1.592-3.556 3.556v0 24.889c0 1.964 1.592 3.556 3.556 3.556v0h24.889c1.964 0 3.556-1.592 3.556-3.556v0-4.053c1.064-0.623 1.77-1.757 1.778-3.057v-10.668c-0.008-1.301-0.714-2.435-1.761-3.049l-0.017-0.009z"></path>
</svg>
